<svg xmlns="http://www.w3.org/2000/svg" width="24" height="24" viewBox="0 0 50 50">
    <path d="M 28.8125 0.03125 L 0.8125 5.34375 C 0.3405 5.43375 0 5.86375 0 6.34375 L 0 43.65625 C 0 44.13625 0.3405 44.56725 0.8125 44.65625 L 28.8125 49.96875 C 28.8745 49.98075 28.938 50 29 50 C 29.23 50 29.444 49.93025 29.625 49.78125 C 29.854 49.59025 30 49.298 30 49 L 30 1 C 30 0.702 29.854 0.40875 29.625 0.21875 C 29.395 0.02875 29.1045 -0.02475 28.8125 0.03125 z M 32 6 L 32 13 L 34 13 L 34 15 L 32 15 L 32 20 L 34 20 L 34 22 L 32 22 L 32 27 L 34 27 L 34 29 L 32 29 L 32 35 L 34 35 L 34 37 L 32 37 L 32 44 L 47 44 C 48.103 44 49 43.103 49 42 L 49 8 C 49 6.897 48.103 6 47 6 L 32 6 z M 36 13 L 44 13 L 44 15 L 36 15 L 36 13 z M 6.6875 15.6875 L 11.8125 15.6875 L 14.5 21.28125 C 14.709 21.72425 14.8975 22.266 15.0625 22.875 L 15.09375 22.875 C 15.19775 22.51 15.4005 21.93975 15.6875 21.21875 L 18.65625 15.6875 L 23.34375 15.6875 L 17.75 24.9375 L 23.5 34.375 L 18.53125 34.375 L 15.28125 28.28125 C 15.15925 28.05425 15.03625 27.63825 14.90625 27.03125 L 14.875 27.03125 C 14.814 27.31825 14.6635 27.76175 14.4375 28.34375 L 11.1875 34.375 L 6.1875 34.375 L 12.15625 25.03125 L 6.6875 15.6875 z M 36 20 L 44 20 L 44 22 L 36 22 L 36 20 z M 36 27 L 44 27 L 44 29 L 36 29 L 36 27 z M 36 35 L 44 35 L 44 37 L 36 37 L 36 35 z"/>
</svg>