<?xml version="1.0"?>
<svg width="48" height="48" xmlns="http://www.w3.org/2000/svg" xmlns:svg="http://www.w3.org/2000/svg">
 <!-- Created with SVG-edit - http://svg-edit.googlecode.com/ -->
 <g>
  <title>Layer 1</title>
  <path d="m5.948849,20.756454c0.108459,-0.078033 0.154419,-0.142822 0.216309,-0.174408c0.068115,-0.034729 0.133972,-0.060822 0.201965,-0.087311c0.067749,-0.026428 0.146301,-0.044067 0.212219,-0.102356c0.04718,-0.041687 0.122681,-0.075378 0.199585,-0.079529c0.089233,-0.004852 0.136597,-0.053955 0.209778,-0.084534c0.067078,-0.028046 0.145691,-0.044525 0.221008,-0.086029c0.062744,-0.034546 0.080078,-0.117798 0.142334,-0.159729c0.06311,-0.042511 0.140625,-0.067291 0.210022,-0.114136c0.056763,-0.038239 0.118713,-0.072723 0.195129,-0.123352c0.073059,-0.048431 0.132141,-0.084106 0.183044,-0.140808c0.047974,-0.053345 0.101563,-0.108856 0.156311,-0.144318c0.082458,-0.053406 0.131592,-0.100342 0.188171,-0.15097c0.073486,-0.065765 0.135071,-0.096741 0.196411,-0.12561l0.083679,-0.02533" id="svg_3" stroke-linecap="null" stroke-linejoin="null" stroke-dasharray="null" stroke-width="0" stroke="#000000" fill="#3f3f3f"/>
  <path stroke-width="0" id="svg_5" d="m6.950806,29.220596c-0.977356,-0.471771 0.297913,-1.413971 0.780884,-1.83078c0.325195,-0.321228 -1.864014,0.044769 -0.939697,-1.069458c1.013916,-0.910614 0.63092,-2.451172 -0.382751,-3.167114c-1.39502,-1.007355 -3.184753,-1.869568 -3.700134,-3.750519c-0.521179,-1.171509 0.714661,-2.405182 -0.080383,-3.463287c-0.639587,-1.373962 0.107788,-2.806427 0.572327,-4.078918c0.213806,-1.760284 -1.095215,-3.152191 -1.81488,-4.598389c-0.891418,-1.381744 -1.40509,-2.992157 -1.478821,-4.670074c-0.19397,-0.716522 0.020691,-1.828979 0.794556,-0.862854c1.62085,1.387726 3.400269,2.704987 4.534851,4.604401c0.214661,0.686707 1.074463,2.67511 1.122498,0.874207c0.022339,-2.475098 0.729492,-5.175262 2.541016,-6.834076c1.231995,-1.200775 1.896667,0.901672 1.953918,1.96994c0.32074,2.102448 -0.210754,4.186981 -0.803162,6.172424c-0.217468,0.923096 -0.783936,3.451935 0.83136,2.519226c3.721069,-1.536377 8.22937,0.077606 10.653137,3.377899c1.114136,1.59787 1.602112,3.651398 1.591248,5.622467c-0.57373,1.158447 1.5578,-0.021515 0.785278,1.31485c-0.454468,1.480255 -1.739197,2.283417 -2.639221,3.400604c-0.91571,0.89505 -0.236206,2.808899 -1.750732,3.091309c-2.209595,0.728485 -4.529785,1.047333 -6.830139,1.233032c-1.287231,0.28241 -1.912048,-1.292175 -0.678101,-1.946594c0.591553,-0.975098 2.283875,-1.043182 2.786682,-1.197845c-1.201538,0.125977 -2.68335,-0.398865 -3.695923,0.397095c-0.613342,1.064667 -1.104431,2.465485 -2.390259,2.76944c-0.577637,0.171967 -1.171997,0.309265 -1.76355,0.123016l0,0z" stroke-linecap="null" stroke-linejoin="null" stroke-dasharray="null" stroke="#000000" fill="#3f3f3f"/>
  <path transform="rotate(17.9843, 20.8705, 33.212)" id="svg_8" d="m19.468744,39.156464c-0.330399,-0.330849 -0.287113,-0.530941 0.516567,-2.383953c0.405811,-0.935993 0.73826,-1.728783 0.73826,-1.76194c0,-0.033154 -1.121046,-0.060329 -2.490646,-0.060329l-2.490648,0l0,-1.752834l0,-1.752472l2.510283,0c1.935524,0 2.488684,-0.053059 2.415857,-0.230618c-0.051855,-0.126911 -0.406078,-0.968298 -0.786633,-1.870331c-0.71818,-1.700132 -0.717823,-2.156055 0.000713,-2.29738c0.357975,-0.070059 5.926609,5.3332 6.11805,5.936071c-1.854578,2.153828 -4.072037,4.4077 -6.114658,6.394985c-0.107811,0 -0.295412,-0.09951 -0.417145,-0.221199z" stroke-linecap="null" stroke-linejoin="null" stroke-dasharray="null" stroke-width="0" stroke="#000000" fill="#ff0000"/>
  <path id="svg_10" stroke-width="0" d="m31.613747,47.923149c-0.977356,-0.471802 0.297852,-1.413971 0.780823,-1.83078c0.325256,-0.321228 -1.864014,0.044769 -0.939697,-1.069458c1.013977,-0.910614 0.63092,-2.451172 -0.38269,-3.167114c-1.395081,-1.007355 -3.184814,-1.869568 -3.700134,-3.750519c-0.52124,-1.171509 0.714661,-2.405212 -0.080444,-3.463287c-0.639526,-1.373962 0.107788,-2.806427 0.572327,-4.078918c0.213867,-1.760284 -1.449055,-3.216644 -1.81488,-4.598389c-0.365826,-1.381744 -1.254921,-2.241341 -1.47876,-4.670105c-0.223839,-2.428764 1.522324,-2.204403 0.794495,-0.862823c-0.727829,1.341579 3.40033,2.704987 4.534851,4.604401c0.214661,0.686707 1.074524,2.67511 1.122559,0.874176c0.022339,-2.475067 0.729431,-5.175232 2.541016,-6.834045c1.231934,-1.200775 1.896667,0.901672 1.953918,1.96994c0.32074,2.102448 -0.210815,4.186981 -0.803223,6.172424c-0.217468,0.923096 -0.783875,3.451935 0.83136,2.519226c3.721069,-1.536377 8.22937,0.077606 10.653137,3.377899c1.114197,1.59787 1.602173,3.651398 1.591309,5.622467c-0.57373,1.158447 1.032146,0.353909 0.259686,1.31485c-0.772461,0.960941 -1.213665,2.283417 -2.113689,3.400604c-0.91571,0.89505 -0.236145,2.808899 -1.750671,3.091309c-2.209656,0.728485 -4.529846,1.047333 -6.8302,1.233032c-1.287231,0.28241 -1.911987,-1.292175 -0.678101,-1.946594c0.591553,-0.975098 2.283936,-1.043182 2.786682,-1.197845c-1.201538,0.125977 -2.68335,-0.398865 -3.695923,0.397095c-0.613342,1.064667 -1.10437,2.465485 -2.390259,2.76944c-0.577576,0.171967 -1.171936,0.309265 -1.763489,0.123016l0,0z" stroke-linecap="null" stroke-linejoin="null" stroke-dasharray="null" stroke="#000000" fill="#3f3f3f"/>
 </g>
</svg>