<?xml version="1.0"?>
<svg width="23.999999999999996" height="23.999999999999996" xmlns="http://www.w3.org/2000/svg" xmlns:svg="http://www.w3.org/2000/svg">
 <g>
  <title>Layer 1</title>
  <path fill="black" id="svg_1" d="m18.072088,10.926497q0,0.380984 -0.27841,0.659389l-7.971307,7.971311q-0.278409,0.278408 -0.659389,0.278408t-0.65939,-0.278408t-0.278418,-0.659389l0,-4.220108l-6.564601,0q-0.380984,0 -0.65939,-0.27841t-0.278409,-0.659388l0,-5.626805q0,-0.380983 0.278409,-0.659388t0.65939,-0.27841l6.564601,0l0,-4.220107q0,-0.380982 0.278418,-0.65939t0.65939,-0.278409t0.659389,0.278409l7.971307,7.971307q0.27841,0.278409 0.27841,0.659389zm5.157906,-5.157903l0,10.315804q0,1.743727 -1.238194,2.981913t-2.981916,1.238194l-4.689005,0q-0.190482,0 -0.329691,-0.139208t-0.139209,-0.329691q0,-0.058615 -0.014647,-0.293066t-0.007332,-0.388306t0.043959,-0.344353t0.146532,-0.28573t0.300388,-0.095249l4.689005,0q0.967108,0 1.655804,-0.688692t0.688702,-1.655811l0,-10.315804q0,-0.967111 -0.688702,-1.655804t-1.655804,-0.688701l-4.571774,0t-0.168513,-0.014647t-0.16851,-0.043966t-0.11722,-0.080586t-0.102574,-0.131885t-0.029312,-0.197813q0,-0.058615 -0.014647,-0.293065t-0.007332,-0.388305t0.043959,-0.344347t0.146532,-0.28574t0.300388,-0.095241l4.689005,0q1.743729,0 2.981916,1.238187t1.238194,2.981914z"/>
 </g>
</svg>