<?xml version="1.0"?>
<svg width="24" height="24" xmlns="http://www.w3.org/2000/svg" xmlns:svg="http://www.w3.org/2000/svg">
 <!-- Created with SVG-edit - http://svg-edit.googlecode.com/ -->

 <g>
  <title>Layer 1</title>
  <line id="svg_5" y2="4.128601" x2="1.990271" y1="4.128601" x1="1.948036" stroke-linecap="null" stroke-linejoin="null" stroke-dasharray="null" stroke-width="5" stroke="#000000" fill="none"/>
  <g id="svg_9">
   <path id="svg_10" fill="#000000" d="m1.034751,23.122538l0,-10.104315l10.107487,0l0,10.104315l-10.107487,0zm0,-12.099158l0,-10.104315l10.107487,0l0,10.104315l-10.107487,0zm1.995469,10.104316l6.073169,0l0,-6.071262l-6.073169,0l0,6.071262zm0,-12.142525l6.073169,0l0,-6.071263l-6.073169,0l0,6.071263zm2.038849,10.104315l0,-2.03821l2.038849,0l0,2.03821l-2.038849,0zm0,-12.099159l0,-1.994843l2.038849,0l0,1.994843l-2.038849,0zm8.068636,16.132211l0,-10.104316l6.029788,0l0,2.03821l2.08223,0l0,-2.03821l1.99547,0l0,6.071261l-6.073168,0l0,-1.994843l-1.99547,0l0,6.027897l-2.03885,0zm0,-12.099159l0,-10.104315l10.107488,0l0,10.104315l-10.107488,0zm2.03885,-2.038209l6.073168,0l0,-6.071263l-6.073168,0l0,6.071263zm1.99547,12.142524l1.995468,0l0,1.994844l-1.995468,0l0,-1.994844zm0,-14.137367l0,-1.994843l1.995468,0l0,1.994843l-1.995468,0zm4.077698,14.137367l1.995468,0l0,1.994844l-1.995468,0l0,-1.994844z"/>
  </g>
 </g>
</svg>